<svg xmlns="http://www.w3.org/2000/svg" xmlns:xlink="http://www.w3.org/1999/xlink" width="281" height="281" viewBox="0 0 281 281"><defs><path id="a" d="M.596 16h279.379v249.57H.596z"/></defs><clipPath id="b"><use xlink:href="#a" overflow="visible"/></clipPath><path clip-path="url(#b)" fill="#E10098" d="M267.966 187.359V63.24c8.346-1.928 13.55-10.256 11.622-18.602-1.928-8.347-10.256-13.55-18.603-11.622a15.509 15.509 0 0 0-12.02 15.124c0 .43 0 .85.06 1.27l-21.529 6.89v-9.69c8.339-1.932 13.532-10.26 11.601-18.599-1.932-8.339-10.259-13.534-18.599-11.601a15.499 15.499 0 0 0-11.742 12.28c-27.86 2.18-53.79 10.43-68.469 39.16-14.68-28.73-40.601-37-68.46-39.16-1.551-8.424-9.639-13.996-18.063-12.445-8.424 1.552-13.996 9.639-12.444 18.063A15.51 15.51 0 0 0 53.077 46.61v9.69l-21.48-6.89c0-.42.07-.84.07-1.27.013-8.572-6.924-15.531-15.495-15.545C7.599 32.581.64 39.519.626 48.09a15.52 15.52 0 0 0 12.04 15.15v124.129c-8.339 1.936-13.531 10.264-11.597 18.604 1.934 8.338 10.262 13.529 18.601 11.596a15.503 15.503 0 0 0 9.626-6.859l95.47 37.141c-.116.73-.176 1.471-.18 2.209.435 8.561 7.727 15.148 16.288 14.713 7.951-.404 14.307-6.76 14.711-14.713a15.78 15.78 0 0 0-.15-2l95.94-37.299c4.556 7.248 14.125 9.428 21.372 4.873 7.247-4.557 9.428-14.125 4.872-21.371a15.495 15.495 0 0 0-9.624-6.852l-.029-.052zm-140.74 54l-95.69-37.26c.06-.541.09-1.084.09-1.629a15.522 15.522 0 0 0-12-15.111V63.25a15.561 15.561 0 0 0 9.82-7.17l23.65 7.57v107.43c-8.344 1.938-13.536 10.273-11.598 18.617 1.939 8.344 10.274 13.535 18.618 11.598a15.506 15.506 0 0 0 11.27-10.404c25 4 51.54 18.129 64.61 44.189a15.55 15.55 0 0 0-8.771 6.24v.039zm11.06-157.789V225c-15.239-24-41.589-37.221-66.359-41.08a15.509 15.509 0 0 0-11.85-12.83V46.61a15.521 15.521 0 0 0 11.42-10.88c14.88 1.25 26.51 4.08 35.95 8.68 13.61 6.65 23.29 17.51 29.589 33.2l1.25 3.11v2.85zm4 7.35v-10.2l1.25-3.11c6.3-15.69 16-26.55 29.6-33.2 9.43-4.6 21.07-7.43 35.94-8.68a15.518 15.518 0 0 0 11.42 10.88v124.47a15.517 15.517 0 0 0-11.83 12.83c-24.771 3.859-51.13 17-66.38 41.08V90.92zm118.68 96.449a15.502 15.502 0 0 0-12 15.102c0 .549 0 1.088.08 1.629l-96.08 37.371a15.581 15.581 0 0 0-8.41-6.262c13-26.15 39.65-40.309 64.67-44.309 2.602 8.16 11.327 12.668 19.488 10.066s12.668-11.326 10.065-19.488a15.5 15.5 0 0 0-11.273-10.398V63.65l23.66-7.57a15.506 15.506 0 0 0 9.81 7.16l-.01 124.129z"/></svg>